@startuml

title Cosmo Tech Platform API Schemas Diagram

entity AboutInfo {
    * version: AboutInfoVersion
}

entity AboutInfoVersion {
    * full: String
    * release: String
    * major: Integer
    * minor: Integer
    * patch: Integer
    * label: String
    * build: String
}

entity ComponentRolePermissions {
    * component: String
    * roles: Map
}

entity ContainerResourceSizeInfo {
    * cpu: String
    * memory: String
}

entity ContainerResourceSizing {
    * requests: ContainerResourceSizeInfo
    * limits: ContainerResourceSizeInfo
}

entity CreatedRun {
    * id: String
}

entity Dataset {
    * id: String
    * name: String
    description: String
    * organizationId: String
    * workspaceId: String
    * tags: List<String>
    additionalData: Map
    * parts: List<DatasetPart>
    * createInfo: DatasetEditInfo
    * updateInfo: DatasetEditInfo
    * security: DatasetSecurity
}

entity DatasetAccessControl {
    * id: String
    * role: String
}

entity DatasetCreateRequest {
    * name: String
    description: String
    tags: List<String>
    additionalData: Map
    parts: List<DatasetPartCreateRequest>
    security: DatasetSecurity
}

entity DatasetEditInfo {
    * timestamp: Long
    * userId: String
}

entity DatasetMemberGroup {
    * id: String
    * role: String
    * users: List<String>
}

entity DatasetMemberUser {
    * id: String
    * role: String
}

entity DatasetMembers {
    * users: List<DatasetMemberUser>
    * groups: List<DatasetMemberGroup>
}

entity DatasetPart {
    * id: String
    * name: String
    * sourceName: String
    description: String
    * tags: List<String>
    additionalData: Map
    * type: DatasetPartTypeEnum
    * organizationId: String
    * workspaceId: String
    * datasetId: String
    * createInfo: DatasetEditInfo
    * updateInfo: DatasetEditInfo
}

entity DatasetPartCreateRequest {
    * name: String
    * sourceName: String
    description: String
    tags: List<String>
    additionalData: Map
    type: DatasetPartTypeEnum
}

entity DatasetPartTypeEnum {
}

entity DatasetPartUpdateRequest {
    sourceName: String
    description: String
    tags: List<String>
    additionalData: Map
}

entity DatasetRole {
    * role: String
}

entity DatasetSecurity {
    * default: String
    * accessControlList: List<DatasetAccessControl>
}

entity DatasetUpdateRequest {
    name: String
    description: String
    tags: List<String>
    additionalData: Map
    parts: List<DatasetPartCreateRequest>
}

entity LastRunInfo {
    lastRunId: String
    lastRunStatus: String
}

entity MemberGroup {
    * id: String
    * role: String
    * users: List<String>
}

entity MemberUser {
    * id: String
    * role: String
}

entity Members {
    * users: List<MemberUser>
    * groups: List<MemberGroup>
}

entity Organization {
    * id: String
    * name: String
    * createInfo: OrganizationEditInfo
    * updateInfo: OrganizationEditInfo
    * security: OrganizationSecurity
}

entity OrganizationAccessControl {
    * id: String
    * role: String
}

entity OrganizationCreateRequest {
    * name: String
    security: OrganizationSecurity
}

entity OrganizationEditInfo {
    * timestamp: Long
    * userId: String
}

entity OrganizationMemberGroup {
    * id: String
    * role: String
    * users: List<String>
}

entity OrganizationMemberUser {
    * id: String
    * role: String
}

entity OrganizationMembers {
    * users: List<OrganizationMemberUser>
    * groups: List<OrganizationMemberGroup>
}

entity OrganizationRole {
    * role: String
}

entity OrganizationSecurity {
    * default: String
    * accessControlList: List<OrganizationAccessControl>
}

entity OrganizationUpdateRequest {
    name: String
}

entity ResourceSizeInfo {
    * cpu: String
    * memory: String
}

entity Run {
    id: String
    state: RunState
    organizationId: String
    * createInfo: RunEditInfo
    workflowId: String
    csmSimulationRun: String
    generateName: String
    workflowName: String
    workspaceId: String
    workspaceKey: String
    runnerId: String
    solutionId: String
    runTemplateId: String
    computeSize: String
    datasetList: List<String>
    parametersValues: List<RunTemplateParameterValue>
    nodeLabel: String
    containers: List<RunContainer>
}

entity RunContainer {
    id: String
    * name: String
    labels: Map
    envVars: Map
    * image: String
    entrypoint: String
    runArgs: List<String>
    dependencies: List<String>
    solutionContainer: Boolean
    nodeLabel: String
    runSizing: ContainerResourceSizing
}

entity RunEditInfo {
    * timestamp: Long
    * userId: String
}

entity RunResourceRequested {
    cpu: Long
    memory: Long
}

entity RunState {
}

entity RunStatus {
    id: String
    organizationId: String
    workspaceId: String
    runnerId: String
    workflowId: String
    workflowName: String
    createInfo: RunEditInfo
    startTime: String
    endTime: String
    phase: String
    progress: String
    message: String
    estimatedDuration: Integer
    nodes: List<RunStatusNode>
    state: RunState
}

entity RunStatusNode {
    id: String
    name: String
    containerName: String
    outboundNodes: List<String>
    resourcesDuration: RunResourceRequested
    estimatedDuration: Integer
    hostNodeName: String
    message: String
    phase: String
    progress: String
    startTime: String
    endTime: String
}

entity RunTemplate {
    * id: String
    name: String
    labels: Map
    description: String
    tags: List<String>
    computeSize: String
    runSizing: RunTemplateResourceSizing
    * parameterGroups: List<String>
    executionTimeout: Integer
}

entity RunTemplateCreateRequest {
    * id: String
    name: String
    labels: Map
    description: String
    tags: List<String>
    computeSize: String
    runSizing: RunTemplateResourceSizing
    parameterGroups: List<String>
    executionTimeout: Integer
}

entity RunTemplateParameter {
    * id: String
    description: String
    labels: Map
    * varType: String
    defaultValue: String
    minValue: String
    maxValue: String
    additionalData: Map
}

entity RunTemplateParameterCreateRequest {
    * id: String
    description: String
    labels: Map
    * varType: String
    defaultValue: String
    minValue: String
    maxValue: String
    additionalData: Map
}

entity RunTemplateParameterGroup {
    * id: String
    description: String
    labels: Map
    additionalData: Map
    * parameters: List<String>
}

entity RunTemplateParameterGroupCreateRequest {
    * id: String
    description: String
    labels: Map
    additionalData: Map
    parameters: List<String>
}

entity RunTemplateParameterGroupUpdateRequest {
    description: String
    labels: Map
    additionalData: Map
    parameters: List<String>
}

entity RunTemplateParameterUpdateRequest {
    description: String
    labels: Map
    varType: String
    defaultValue: String
    minValue: String
    maxValue: String
    additionalData: Map
}

entity RunTemplateParameterValue {
    * parameterId: String
    varType: String
    * value: String
}

entity RunTemplateResourceSizing {
    * requests: ResourceSizeInfo
    * limits: ResourceSizeInfo
}

entity RunTemplateUpdateRequest {
    name: String
    labels: Map
    description: String
    tags: List<String>
    computeSize: String
    runSizing: RunTemplateResourceSizing
    parameterGroups: List<String>
    executionTimeout: Integer
}

entity Runner {
    * id: String
    * name: String
    description: String
    tags: List<String>
    parentId: String
    * createInfo: RunnerEditInfo
    * updateInfo: RunnerEditInfo
    rootId: String
    * solutionId: String
    * runTemplateId: String
    * organizationId: String
    * workspaceId: String
    solutionName: String
    runTemplateName: String
    additionalData: Map
    * datasets: RunnerDatasets
    runSizing: RunnerResourceSizing
    * parametersValues: List<RunnerRunTemplateParameterValue>
    * lastRunInfo: LastRunInfo
    status: RunnerStatus
    * validationStatus: RunnerValidationStatus
    * security: RunnerSecurity
}

entity RunnerAccessControl {
    * id: String
    * role: String
}

entity RunnerCreateRequest {
    * name: String
    description: String
    tags: List<String>
    * solutionId: String
    parentId: String
    * runTemplateId: String
    datasetList: List<String>
    runSizing: RunnerResourceSizing
    parametersValues: List<RunnerRunTemplateParameterValue>
    additionalData: Map
    solutionName: String
    runTemplateName: String
    security: RunnerSecurity
}

entity RunnerDatasets {
    * bases: List<String>
    * parameter: String
    parameters: List<Object>
}

entity RunnerEditInfo {
    * timestamp: Long
    * userId: String
}

entity RunnerMemberGroup {
    * id: String
    * role: String
    * users: List<String>
}

entity RunnerMemberUser {
    * id: String
    * role: String
}

entity RunnerMembers {
    * users: List<RunnerMemberUser>
    * groups: List<RunnerMemberGroup>
}

entity RunnerResourceSizing {
    * requests: ResourceSizeInfo
    * limits: ResourceSizeInfo
}

entity RunnerRole {
    * role: String
}

entity RunnerRunTemplateParameterValue {
    * parameterId: String
    varType: String
    * value: String
    isInherited: Boolean
}

entity RunnerSecurity {
    * default: String
    * accessControlList: List<RunnerAccessControl>
}

entity RunnerStatus {
}

entity RunnerUpdateRequest {
    name: String
    description: String
    tags: List<String>
    runTemplateId: String
    datasetList: List<String>
    runSizing: RunnerResourceSizing
    parametersValues: List<RunnerRunTemplateParameterValue>
    additionalData: Map
    solutionName: String
    runTemplateName: String
    validationStatus: RunnerValidationStatus
}

entity RunnerValidationStatus {
}

entity Solution {
    * id: String
    * organizationId: String
    * key: String
    * name: String
    description: String
    * repository: String
    alwaysPull: Boolean
    * version: String
    * createInfo: SolutionEditInfo
    * updateInfo: SolutionEditInfo
    sdkVersion: String
    url: String
    tags: List<String>
    * parameters: List<RunTemplateParameter>
    * parameterGroups: List<RunTemplateParameterGroup>
    * runTemplates: List<RunTemplate>
    * security: SolutionSecurity
}

entity SolutionAccessControl {
    * id: String
    * role: String
}

entity SolutionCreateRequest {
    * key: String
    * name: String
    description: String
    * repository: String
    * version: String
    alwaysPull: Boolean
    tags: List<String>
    parameters: List<RunTemplateParameterCreateRequest>
    parameterGroups: List<RunTemplateParameterGroupCreateRequest>
    runTemplates: List<RunTemplateCreateRequest>
    url: String
    security: SolutionSecurity
}

entity SolutionEditInfo {
    * timestamp: Long
    * userId: String
}

entity SolutionMemberGroup {
    * id: String
    * role: String
    * users: List<String>
}

entity SolutionMemberUser {
    * id: String
    * role: String
}

entity SolutionMembers {
    * users: List<SolutionMemberUser>
    * groups: List<SolutionMemberGroup>
}

entity SolutionRole {
    * role: String
}

entity SolutionSecurity {
    * default: String
    * accessControlList: List<SolutionAccessControl>
}

entity SolutionUpdateRequest {
    key: String
    name: String
    description: String
    repository: String
    alwaysPull: Boolean
    version: String
    url: String
    tags: List<String>
    parameters: List<RunTemplateParameterCreateRequest>
    parameterGroups: List<RunTemplateParameterGroupCreateRequest>
    runTemplates: List<RunTemplateCreateRequest>
}

entity Workspace {
    * id: String
    * organizationId: String
    * key: String
    * name: String
    description: String
    version: String
    tags: List<String>
    * createInfo: WorkspaceEditInfo
    * updateInfo: WorkspaceEditInfo
    * solution: WorkspaceSolution
    additionalData: Map
    * security: WorkspaceSecurity
}

entity WorkspaceAccessControl {
    * id: String
    * role: String
}

entity WorkspaceCreateRequest {
    * key: String
    * name: String
    description: String
    version: String
    tags: List<String>
    * solution: WorkspaceSolution
    additionalData: Map
    security: WorkspaceSecurity
}

entity WorkspaceEditInfo {
    * timestamp: Long
    * userId: String
}

entity WorkspaceFile {
    * fileName: String
}

entity WorkspaceMemberGroup {
    * id: String
    * role: String
    * users: List<String>
}

entity WorkspaceMemberUser {
    * id: String
    * role: String
}

entity WorkspaceMembers {
    * users: List<WorkspaceMemberUser>
    * groups: List<WorkspaceMemberGroup>
}

entity WorkspaceRole {
    * role: String
}

entity WorkspaceSecurity {
    * default: String
    * accessControlList: List<WorkspaceAccessControl>
}

entity WorkspaceSolution {
    * solutionId: String
    datasetId: String
    defaultParameterValues: Map
}

entity WorkspaceUpdateRequest {
    key: String
    name: String
    description: String
    tags: List<String>
    solution: WorkspaceSolution
    additionalData: Map
}


DatasetCreateRequest -- "0..*" DatasetPartCreateRequest : parts
DatasetCreateRequest -- DatasetSecurity : security
RunnerUpdateRequest -- RunnerResourceSizing : runSizing
RunnerUpdateRequest -- "0..*" RunnerRunTemplateParameterValue : parametersValues
RunTemplateResourceSizing -- ResourceSizeInfo : requests
RunTemplateResourceSizing -- ResourceSizeInfo : limits
RunnerCreateRequest -- RunnerResourceSizing : runSizing
RunnerCreateRequest -- "0..*" RunnerRunTemplateParameterValue : parametersValues
RunnerCreateRequest -- RunnerSecurity : security
DatasetSecurity -- "0..*" DatasetAccessControl : accessControlList
ContainerResourceSizing -- ContainerResourceSizeInfo : requests
ContainerResourceSizing -- ContainerResourceSizeInfo : limits
RunnerMembers -- "0..*" RunnerMemberUser : users
RunnerMembers -- "0..*" RunnerMemberGroup : groups
SolutionSecurity -- "0..*" SolutionAccessControl : accessControlList
DatasetMembers -- "0..*" DatasetMemberUser : users
DatasetMembers -- "0..*" DatasetMemberGroup : groups
WorkspaceSecurity -- "0..*" WorkspaceAccessControl : accessControlList
WorkspaceCreateRequest -- WorkspaceSolution : solution
WorkspaceCreateRequest -- WorkspaceSecurity : security
AboutInfo -- AboutInfoVersion : version
RunTemplateUpdateRequest -- RunTemplateResourceSizing : runSizing
RunContainer -- ContainerResourceSizing : runSizing
SolutionCreateRequest -- "0..*" RunTemplateParameterCreateRequest : parameters
SolutionCreateRequest -- "0..*" RunTemplateParameterGroupCreateRequest : parameterGroups
SolutionCreateRequest -- "0..*" RunTemplateCreateRequest : runTemplates
SolutionCreateRequest -- SolutionSecurity : security
SolutionUpdateRequest -- "0..*" RunTemplateParameterCreateRequest : parameters
SolutionUpdateRequest -- "0..*" RunTemplateParameterGroupCreateRequest : parameterGroups
SolutionUpdateRequest -- "0..*" RunTemplateCreateRequest : runTemplates
Members -- "0..*" MemberUser : users
Members -- "0..*" MemberGroup : groups
OrganizationCreateRequest -- OrganizationSecurity : security
Runner -- RunnerEditInfo : createInfo
Runner -- RunnerEditInfo : updateInfo
Runner -- RunnerDatasets : datasets
Runner -- RunnerResourceSizing : runSizing
Runner -- "0..*" RunnerRunTemplateParameterValue : parametersValues
Runner -- LastRunInfo : lastRunInfo
Runner -- RunnerSecurity : security
Organization -- OrganizationEditInfo : createInfo
Organization -- OrganizationEditInfo : updateInfo
Organization -- OrganizationSecurity : security
RunStatus -- RunEditInfo : createInfo
RunStatus -- "0..*" RunStatusNode : nodes
RunTemplate -- RunTemplateResourceSizing : runSizing
DatasetUpdateRequest -- "0..*" DatasetPartCreateRequest : parts
RunTemplateCreateRequest -- RunTemplateResourceSizing : runSizing
RunnerSecurity -- "0..*" RunnerAccessControl : accessControlList
OrganizationMembers -- "0..*" OrganizationMemberUser : users
OrganizationMembers -- "0..*" OrganizationMemberGroup : groups
RunStatusNode -- RunResourceRequested : resourcesDuration
WorkspaceUpdateRequest -- WorkspaceSolution : solution
DatasetPart -- DatasetEditInfo : createInfo
DatasetPart -- DatasetEditInfo : updateInfo
Solution -- SolutionEditInfo : createInfo
Solution -- SolutionEditInfo : updateInfo
Solution -- "0..*" RunTemplateParameter : parameters
Solution -- "0..*" RunTemplateParameterGroup : parameterGroups
Solution -- "0..*" RunTemplate : runTemplates
Solution -- SolutionSecurity : security
WorkspaceMembers -- "0..*" WorkspaceMemberUser : users
WorkspaceMembers -- "0..*" WorkspaceMemberGroup : groups
Dataset -- "0..*" DatasetPart : parts
Dataset -- DatasetEditInfo : createInfo
Dataset -- DatasetEditInfo : updateInfo
Dataset -- DatasetSecurity : security
Run -- RunEditInfo : createInfo
Run -- "0..*" RunTemplateParameterValue : parametersValues
Run -- "0..*" RunContainer : containers
OrganizationSecurity -- "0..*" OrganizationAccessControl : accessControlList
RunnerResourceSizing -- ResourceSizeInfo : requests
RunnerResourceSizing -- ResourceSizeInfo : limits
SolutionMembers -- "0..*" SolutionMemberUser : users
SolutionMembers -- "0..*" SolutionMemberGroup : groups
Workspace -- WorkspaceEditInfo : createInfo
Workspace -- WorkspaceEditInfo : updateInfo
Workspace -- WorkspaceSolution : solution
Workspace -- WorkspaceSecurity : security

@enduml